<?xml version="1.0" encoding="utf-8"?>
<!DOCTYPE svg PUBLIC "-//W3C//DTD SVG 1.1//EN" "http://www.w3.org/Graphics/SVG/1.1/DTD/svg11.dtd">
<svg
  enable-background="new 0 0 512 512"
  height="512px"
  id="facebook"
  version="1.1"
  viewBox="0 0 512 512"
  width="512px"
  x="0px"
  xml:space="preserve"
  xmlns:xlink="http://www.w3.org/1999/xlink"
  xmlns="http://www.w3.org/2000/svg"
  y="0px"
>
  <path
    d="M398.14,50.5H117.98c-36.408,0-68.48,26.452-68.48,62.86v280.16c0,36.408,32.072,68.98,68.48,68.98h173.465
		c-0.324-54,0.078-114.134-0.184-166.387c-11.064-0.112-22.139-0.684-33.203-0.854c0.041-18.467,0.018-37.317,0.024-55.781
		c11.058-0.137,22.121-0.163,33.179-0.268c0.338-17.957-0.339-36.025,0.354-53.966c1.103-14.205,6.519-28.563,17.14-38.377
		c12.859-12.239,31.142-16.397,48.388-16.912c18.232-0.163,36.467-0.076,54.709-0.068c0.072,19.24,0.072,38.482-0.008,57.722
		c-11.789-0.02-23.585,0.023-35.373-0.025c-7.469-0.467-15.146,5.198-16.505,12.609c-0.177,12.875-0.063,25.757-0.057,38.628
		c17.284,0.073,34.577-0.02,51.862,0.044c-1.265,18.629-3.581,37.168-6.285,55.637c-15.272,0.137-30.555,1.514-45.818,1.602
		c-0.129,52.236,0.04,112.396-0.093,166.396h38.563c36.408,0,63.36-32.572,63.36-68.98V113.36C461.5,76.952,434.548,50.5,398.14,50.5
		z"
	/>
</svg>
