<?xml version="1.0" encoding="utf-8"?>
<!DOCTYPE svg PUBLIC "-//W3C//DTD SVG 1.1//EN" "http://www.w3.org/Graphics/SVG/1.1/DTD/svg11.dtd">
<svg
  enable-background="new 0 0 512 512"
  height="512px"
  id="twitter"
  version="1.1"
  viewBox="0 0 512 512"
  width="512px"
  x="0px"
  xml:space="preserve"
  xmlns:xlink="http://www.w3.org/1999/xlink"
  xmlns="http://www.w3.org/2000/svg"
  y="0px"
>
	<path
	  d="M404.016,60.667H129.348c-37.785,0-68.681,30.895-68.681,68.684v274.655c0,37.79,30.896,68.661,68.681,68.661h274.667
		c37.771,0,68.652-30.871,68.652-68.661V129.351C472.667,91.562,441.785,60.667,404.016,60.667z M397.853,198.196
		c0.147,2.966,0.185,5.935,0.185,8.915c0,91.025-68.062,195.97-192.578,195.97c-38.225,0-73.804-11.419-103.755-30.941
		c5.302,0.622,10.686,0.95,16.15,0.95c31.707,0,60.893-11.002,84.062-29.47c-29.625-0.569-54.626-20.462-63.237-47.824
		c4.144,0.805,8.384,1.237,12.741,1.237c6.167,0,12.145-0.848,17.825-2.418c-30.963-6.359-54.294-34.18-54.294-67.55
		c0-0.299,0-0.576,0.005-0.869c9.132,5.165,19.569,8.253,30.667,8.61c-18.168-12.34-30.127-33.423-30.127-57.33
		c0-12.615,3.35-24.443,9.176-34.625c33.384,41.671,83.259,69.099,139.507,71.979c-1.15-5.045-1.749-10.303-1.749-15.699
		c0-38.038,30.3-68.88,67.674-68.88c19.487,0,37.071,8.368,49.423,21.753c15.412-3.095,29.898-8.818,42.995-16.716
		c-5.077,16.082-15.793,29.581-29.755,38.113c13.691-1.67,26.716-5.379,38.859-10.842
		C422.567,176.362,411.078,188.5,397.853,198.196z"
	/>
</svg>
