<?xml version="1.0" encoding="utf-8"?>
<!-- Generator: Adobe Illustrator 16.0.0, SVG Export Plug-In . SVG Version: 6.00 Build 0)  -->
<!DOCTYPE svg PUBLIC "-//W3C//DTD SVG 1.1//EN" "http://www.w3.org/Graphics/SVG/1.1/DTD/svg11.dtd">
<svg version="1.1" id="cumberland-logo"
	 xmlns="http://www.w3.org/2000/svg" xmlns:xlink="http://www.w3.org/1999/xlink" x="0px" y="0px" width="967.442px"
	 height="1662.791px" viewBox="0 0 967.442 1662.791" enable-background="new 0 0 967.442 1662.791" xml:space="preserve">
<g>
	<g>
		<path fill="none" d="M568.919,1849.651c-332,0-664-0.009-996,0.105c-3.85,0.001-4.606-0.756-4.605-4.605
			c0.109-663.667,0.109-1327.333,0-1991c-0.001-3.85,0.755-4.605,4.605-4.605c664,0.109,1328,0.109,1992,0
			c3.85,0,4.605,0.756,4.605,4.605c-0.11,663.667-0.11,1327.333,0,1991c0,3.85-0.756,4.606-4.605,4.605
			C1232.919,1849.643,900.919,1849.651,568.919,1849.651z M497.271,1651.901c-40.214-44.789-58.099-96.395-73.713-148.16
			c-22.639-75.056-21.932-152.28-9.012-228.883c12.512-74.181,38.369-144.201,78.001-208.402
			c17.186-27.841,32.275-62.578,75.091-53.721c45.984,9.514,91.723,20.596,136.992,33.08
			c61.003,16.824,100.552-2.235,107.806-70.075c1.799-16.814-4.215-39.013,14.568-49.384c25.312-13.977,42.173-28.391,19.52-59.008
			c36.806-15.22,27.336-39.669,13.706-63.936c-8.094-14.409,0.512-21.179,10.795-26.062c10.764-5.113,23.122-6.818,34.023-11.708
			c18.048-8.097,44.908-9.658,39.609-39.385c-2.232-12.526-11.307-23.962-17.853-35.566
			c-21.281-37.729-47.931-73.011-55.656-116.988c-2.647-15.069-8.157-32.318,17.224-36.637c13.474-2.293,22.774-13.778,31.01-27.804
			c-14.271,3.636-25.384,13.274-42.638,6.577c40.709-54.412,37.144-117.117,36.118-179.302
			c-1.034-62.822-11.438-123.904-35.089-182.392C854.159,95.752,819.208,45.792,767.217,4.156
			c11.554,80.108,5.287,155.263-19.441,228.525c-4.163,13.291-8.325,26.582-10.014,31.973
			c-20.919,54.762-40.934,100.955-65.613,145.075c-20.172,33.362-40.344,66.725-60.516,100.086
			c-57.286,90.405-135.637,165.853-187.652,262.894c-3.813,8.014-8.576,18.025-13.339,28.038
			c-10.369,23.627-19.799,47.726-28.038,72.225c-7.331,21.795-13.937,43.877-19.797,66.112
			c-8.638,32.771-11.882,66.207-6.508,99.837c3.506,21.939,9.684,43.22,28.641,59.109c-27.441,3.115-60.565-43.467-72.811-102.123
			c-9.18-43.969-1.761-87.377,11.186-132.475c-17.258,13.224-80.464,125.144-82.395,137.697
			c-6.636,19.183-11.829,32.038-16.64,45.943c0.548-0.383,0.86-0.601,0,0c-3.728,16.866-7.854,33.654-11.737,51.224
			c0.135-0.099-0.904,0.662-0.784,0.573c-10.386,58.121-10.183,115.032-0.358,166.26c5.423,23.939,9.547,42.143,13.67,60.346
			c25.864,80.706,68.473,151.396,129.804,222.312C391.204,1584.28,431.768,1631.242,497.271,1651.901z M122.511,1502.694
			c0.657-0.448,1.315-0.896,1.973-1.346c-9.62-27.047-19.511-54.002-28.801-81.163c-15.601-45.605-26.311-92.438-30.839-140.386
			c-3.647-38.61-2.91-77.251,2.419-115.937c4.901-35.575,14.101-69.946,27.322-102.903c15.026-37.453,34.438-72.851,57.614-106.252
			c19.538-28.159,40.017-55.403,62.082-81.625c26.774-31.818,54.882-62.285,84.233-91.735
			c59.265-59.462,118.417-119.051,176.686-179.484c43.499-45.116,87.093-90.238,123.988-141.257
			c43.883-60.679,82.687-123.863,108.066-194.993c15.184-42.554,25.651-85.845,28.961-130.6c2.521-34.101,4.011-68.563-5.516-108.16
			c-5.255,78.308-26.226,146.443-60.726,218.498c1.822-4.377,0.944-1.69-0.356,0.772c-31.494,59.602-69.427,114.805-115.544,163.968
			c-31.584,33.671-64.582,66.035-97.438,98.486c-35.994,35.549-72.943,70.135-108.764,105.854
			c-44.254,44.128-87.707,89.059-131.638,133.513c-29.074,29.421-57.835,59.188-81.635,93.112
			c-19.817,28.249-39.533,56.737-56.787,86.569c-14.868,25.708-26.2,53.461-36.416,74.729c-6.12,19.33-10.296,32.519-15.923,50.291
			c-39.249,137.542-7.373,268.426,64.715,398.416C98.972,1465.094,110.741,1483.894,122.511,1502.694z"/>
		<path fill-rule="evenodd" clip-rule="evenodd" d="M257.599,1005.44c1.931-12.554,58.332-114.645,83.999-139.811
			c-12.946,45.098-21.969,90.619-12.79,134.588c12.245,58.656,39.937,96.033,74.29,102.578
			c-18.957-15.89-26.614-37.625-30.12-59.564c-5.374-33.63-2.13-67.066,6.508-99.837c5.86-22.235,12.466-44.317,19.797-66.112
			c8.239-24.499,17.669-48.598,28.038-72.225c4.763-10.013,9.525-20.024,13.339-28.038
			c52.016-97.041,130.366-172.488,187.652-262.894c32.619-47,32.286-47.166,65.786-98.164c20.602-32.076,51.081-79.238,72-134
			c17.334-41,20.667-81,25.5-118.5c7.333-72.334,4.166-103.001-9.334-156.166c51.991,41.636,88.574,92.767,112.188,151.161
			c23.651,58.487,34.055,119.569,35.089,182.392c1.025,62.185-0.943,131.781-38.277,181.781c20.834,4.833,31.5-2.667,44.797-9.056
			c-8.235,14.025-22.13,26.723-47.463,31.39c-7.667,1.5-3.418,17.981-0.771,33.051c7.578,43.137,32.842,87.888,58.092,121.138
			c11.75,14.875,13.875,21.125,15.417,31.417c1.833,22.917-24.736,33.227-39.609,39.385c-14.127,4.676-23.26,6.595-34.023,11.708
			c-10.283,4.884-18.889,11.653-10.795,26.062c13.63,24.267,22.996,46.686-13.81,61.905c22.653,30.617,5.896,47.062-19.416,61.038
			c-18.783,10.371-12.77,32.569-14.568,49.384c-7.254,67.84-46.803,86.899-107.806,70.075
			c-45.27-12.484-91.008-23.566-136.992-33.08c-42.815-8.857-57.905,25.88-75.091,53.721
			c-39.632,64.201-65.489,134.222-78.001,208.402c-12.92,76.603-13.627,153.827,9.012,228.883
			c15.614,51.766,37.736,113.91,73.713,148.16c-66.185-24.58-106.066-67.621-142.396-104.113
			c-61.331-70.916-103.939-141.606-129.804-222.312c-5.65-21.825-8.65-33.492-13.67-60.346
			c-9.824-51.228-10.027-108.139,0.358-166.26c-0.12,0.089,0.42-1.771,0.285-1.672c3.883-17.569,7.836-33.891,12.236-50.125"/>
		<path fill-rule="evenodd" clip-rule="evenodd" d="M112.835,1489.569c-13-17.5-13.864-20.476-22.647-34.507
			c-72.088-129.99-103.964-260.874-64.715-398.416c5.627-17.772,7.112-24.744,16.195-50.245
			c9.667-22.333,21.275-49.067,36.144-74.775c17.254-29.832,36.97-58.32,56.787-86.569c29.153-37.072,52.561-63.691,81.635-93.112
			c43.931-44.454,87.384-89.385,131.638-133.513c35.82-35.719,72.77-70.305,108.764-105.854
			c32.856-32.451,65.854-64.815,97.438-98.486c46.117-49.163,84.05-104.366,115.544-163.968c1.301-2.463,2.179-5.149,0.356-0.772
			c34.5-72.055,55.471-140.19,60.726-218.498c9.526,39.597,8.037,74.06,5.516,108.16c-3.31,44.755-13.777,88.046-28.961,130.6
			c-25.38,71.13-64.184,134.314-108.066,194.993c-36.896,51.019-80.489,96.141-123.988,141.257
			c-58.269,60.434-117.421,120.022-176.686,179.484c-29.352,29.45-57.459,59.917-84.233,91.735
			c-22.065,26.222-42.544,53.466-62.082,81.625c-23.176,33.401-42.588,68.799-57.614,106.252
			c-13.222,32.957-22.421,67.328-27.322,102.903c-5.329,38.686-6.066,77.326-2.419,115.937
			c4.528,47.947,15.238,94.78,30.839,140.386c9.29,27.161,23.986,62.301,40.736,90.468
			C128.585,1508.32,124.252,1504.653,112.835,1489.569z"/>
	</g>
</g>
</svg>
