<svg xmlns="http://www.w3.org/2000/svg" viewBox="0 0 967.442 1662.791"><path fill="none" d="M568.92 1849.65c-332 0-664 0-996 .1-3.85 0-4.6-.75-4.6-4.6.1-663.67.1-1327.33 0-1991 0-3.85.75-4.6 4.6-4.6 664 .1 1328 .1 1992 0 3.85 0 4.6.75 4.6 4.6-.1 663.67-.1 1327.33 0 1991 0 3.85-.75 4.6-4.6 4.6-332-.1-664-.1-996-.1zm-71.65-197.75c-40.2-44.8-58.1-96.4-73.7-148.16-22.65-75.06-21.94-152.28-9.02-228.88 12.5-74.18 38.36-144.2 78-208.4 17.18-27.85 32.27-62.58 75.1-53.73 45.97 9.52 91.7 20.6 136.98 33.08 61 16.9 100.55-2.2 107.8-70 1.8-16.8-4.2-39 14.57-49.4 25.32-14 42.18-28.4 19.52-59 36.8-15.2 27.34-39.7 13.7-63.9-8.08-14.4.52-21.1 10.8-26 10.77-5.1 23.13-6.8 34.03-11.7 18.05-8.1 44.9-9.7 39.6-39.4-2.22-12.5-11.3-23.9-17.85-35.5-21.28-37.7-47.93-73-55.65-117-2.65-15-8.16-32.3 17.22-36.6 13.48-2.3 22.78-13.7 31-27.8-14.26 3.7-25.37 13.3-42.63 6.6 40.7-54.4 37.15-117.1 36.12-179.3-1.03-62.8-11.44-123.9-35.1-182.4C854.16 96 819.2 46 767.22 4.4c11.55 80.1 5.28 155.24-19.44 228.5l-10.02 31.95c-20.92 54.77-40.93 100.96-65.6 145.08l-60.54 100C554.35 600.3 476 675.7 423.98 772.7c-3.8 8.02-8.58 18.03-13.34 28.05-10.37 23.62-19.8 47.72-28.04 72.22-7.33 21.8-13.93 43.88-19.8 66.1-8.63 32.8-11.88 66.22-6.5 99.85 3.5 21.94 9.68 43.22 28.64 59.1-27.44 3.12-60.57-43.46-72.8-102.1-9.2-43.98-1.77-87.4 11.17-132.5-17.2 13.24-80.4 125.16-82.3 137.7-6.6 19.2-11.8 32.05-16.6 45.95.6-.38.9-.6 0 0-3.7 16.87-7.8 33.66-11.7 51.23l-.8.57c-10.4 58.12-10.1 115.03-.3 166.26l13.7 60.34c25.9 80.7 68.5 151.4 129.8 222.32 36.3 36.4 76.9 83.4 142.4 104.1zM122.5 1502.7l1.98-1.35c-9.62-27.05-19.5-54-28.8-81.16-15.6-45.7-26.3-92.5-30.84-140.4-3.64-38.6-2.9-77.3 2.42-116 4.9-35.6 14.1-70 27.33-102.9 15-37.5 34.4-72.9 57.6-106.3 19.5-28.2 40-55.4 62-81.7 26.8-31.8 54.9-62.3 84.2-91.8 59.2-59.5 118.4-119.1 176.7-179.5 43.5-45.1 87.1-90.2 124-141.3 43.8-60.7 82.6-123.9 108-195 15.2-42.6 25.6-85.8 28.9-130.6 2.5-34.1 4-68.6-5.5-108.2-5.3 78.3-26.3 146.4-60.8 218.5 1.8-4.4.9-1.7-.4.7-31.5 59.6-69.4 114.8-115.6 163.9-31.6 33.66-64.6 66.03-97.4 98.5-36 35.55-72.9 70.13-108.8 105.85-44.3 44.16-87.7 89.1-131.7 133.5-29.07 29.47-57.8 59.2-81.6 93.16-19.87 28.2-39.6 56.7-56.8 86.54-14.9 25.7-26.2 53.5-36.4 74.75l-16 50.3c-39 137.8-7.1 268.7 65 398.7 8.75 14.02 20.52 32.82 32.3 51.62z"/><path fill-rule="evenodd" d="M257.6 1005.44c1.93-12.55 58.33-114.64 84-139.8-12.95 45.1-21.97 90.6-12.8 134.58 12.25 58.65 39.94 96.03 74.3 102.57-18.96-15.9-26.62-37.7-30.12-59.6-5.38-33.7-2.13-67.1 6.5-99.9 5.87-22.3 12.47-44.3 19.8-66.1 8.24-24.5 17.67-48.6 28.04-72.2l13.34-28c52.02-97.1 130.37-172.5 187.65-262.9 32.7-47 32.3-47.2 65.8-98.2 20.6-32.1 51.1-79.3 72-134 17.4-41 20.7-81 25.5-118.5 7.4-72.4 4.2-103-9.3-156.2 52 41.6 88.6 92.7 112.2 151.1 23.7 58.5 34.1 119.5 35.1 182.4 1.1 62.1-.9 131.7-38.3 181.7 20.9 4.8 31.5-2.7 44.8-9-8.2 14-22.1 26.7-47.4 31.4-7.6 1.5-3.4 17.9-.7 33 7.6 43.1 32.9 87.9 58.1 121.1 11.8 14.9 13.9 21.1 15.4 31.4 1.9 22.9-24.7 33.2-39.6 39.3-14.1 4.6-23.2 6.6-34 11.7-10.2 4.9-18.9 11.6-10.8 26 13.7 24.3 23 46.7-13.8 61.9 22.7 30.6 5.9 47.1-19.4 61.1-18.8 10.4-12.8 32.6-14.5 49.4-7.3 67.8-46.8 86.9-107.8 70.1-45.3-12.5-91-23.6-137-33.1-42.8-8.9-57.9 25.9-75.1 53.7-39.6 64.2-65.5 134.2-78 208.4-12.9 76.6-13.6 153.8 9 228.9 15.6 51.7 37.7 113.9 73.7 148.1-66.2-24.58-106.1-67.6-142.4-104.1-61.3-70.9-103.9-141.6-129.8-222.3-5.6-21.8-8.6-33.5-13.7-60.37-9.8-51.2-10-108.1.4-166.24-.1.1.4-1.8.3-1.7 3.9-17.53 7.9-33.85 12.3-50.1" clip-rule="evenodd"/><path fill-rule="evenodd" d="M112.83 1489.57c-13-17.5-13.86-20.48-22.64-34.5-72.1-130-104-260.88-64.8-398.42 5.6-17.78 7.1-24.75 16.2-50.25 9.6-22.33 21.2-49.07 36.1-74.77 17.2-29.84 36.9-58.32 56.8-86.57 29.1-37.07 52.5-63.7 81.6-93.1 43.9-44.47 87.4-89.4 131.6-133.53 35.8-35.72 72.7-70.3 108.7-105.85 32.8-32.45 65.8-64.82 97.4-98.5 46.1-49.15 84.1-104.35 115.6-163.96 1.3-2.46 2.2-5.15.3-.77 34.5-72.05 55.5-140.2 60.7-218.5 9.5 39.6 8 74.06 5.5 108.16-3.3 44.8-13.8 88.1-29 130.6-25.4 71.2-64.2 134.4-108.1 195-36.9 51.1-80.5 96.2-124 141.3-58.3 60.5-117.4 120.1-176.7 179.5-29.4 29.5-57.5 59.9-84.2 91.7-22.1 26.3-42.6 53.5-62.1 81.7-23.2 33.4-42.6 68.8-57.6 106.3-13 32.9-22.2 67.3-27.1 102.9-5.4 38.7-6.1 77.3-2.5 115.9 4.5 47.9 15.2 94.8 30.8 140.4 9.3 27.1 24 62.3 40.8 90.4-7.8-6.3-12.1-10-23.6-25.1z" clip-rule="evenodd"/></svg>
